# xmcd
#
# Track frame offsets:
#	150
#	39006
#	49510
#	79823
#	113886
#	127993
#	150577
#	173753
#	187556
#	217410
#	246074
#	262135
#	285541
#	302119
#	315475
#	332881
#	350508
#
# Disc length: 4769
#
# Revision: 2
# Processed by: cddbd v1.5.1PL0 Copyright (c) Steve Scherf et al.
# Submitted via: CDex 1.50Beta7
# Normalized: r1:DSETVAR1
#
DISCID=e9129f11
DTITLE=Various Artist - Ozone - Elven Sundays
DYEAR=2002
DGENRE=New Age
TTITLE0=Basehead vs Chuck Biscuits - Chiba City Lights 96 (edit)
TTITLE1=Faithless - Crazy English Summer
TTITLE2=Planet Funk - Chase the Sun (Extended mix)
TTITLE3=Way Out West - The Gift (Club edit)
TTITLE4=Sunscreem - Good Times
TTITLE5=Necros - Orchard Street
TTITLE6=Delerium - Myth (edit)
TTITLE7=Jesus Jones - Right Here, Right Now
TTITLE8=C.J. Bolland - The Tower of Naphtali (edit)
TTITLE9=Chicane - Autumn Tactics (Chicane's End of Summer edit)
TTITLE10=Sash! - Mysterious Times (edit)
TTITLE11=iio - Rapture (Riva edit)
TTITLE12=Sunscreem - Perfect Motion (UK radio mix)
TTITLE13=Vogue - Ambient Energy (Ozone's Extended remix)
TTITLE14=Enzso and Boh Runga - One Step Ahead
TTITLE15=Vanessa Carlton - A Thousand Miles
TTITLE16=Jeremy Soule - Neverwinter Wood
EXTD=YEAR: 2002
EXTT0=
EXTT1=
EXTT2=
EXTT3=
EXTT4=
EXTT5=
EXTT6=
EXTT7=
EXTT8=
EXTT9=
EXTT10=
EXTT11=
EXTT12=
EXTT13=
EXTT14=
EXTT15=
EXTT16=
PLAYORDER=
